<svg width="1728" height="1117" viewBox="0 0 1728 1117" fill="none" xmlns="http://www.w3.org/2000/svg">
<g clip-path="url(#clip0_53_360)">
<rect width="1728" height="1117" fill="black"/>
<path d="M1306 237L1651.54 122.826" stroke="url(#paint0_linear_53_360)" stroke-width="20" stroke-linecap="round"/>
<path d="M1306 91L1651.54 122.826" stroke="url(#paint1_linear_53_360)" stroke-width="20" stroke-linecap="round"/>
<path d="M637.516 334.5L635.016 334.484L634.984 339.484L637.484 339.5L637.516 334.5ZM1642.48 138.302C1643.75 137.763 1644.34 136.295 1643.8 135.024C1643.26 133.753 1641.8 133.159 1640.52 133.698L1642.48 138.302ZM1149 300L1148.51 297.548L1149 300ZM637.5 337C637.484 339.5 637.485 339.5 637.488 339.5C637.49 339.5 637.494 339.5 637.499 339.5C637.509 339.5 637.523 339.5 637.543 339.5C637.581 339.501 637.639 339.501 637.716 339.501C637.869 339.502 638.097 339.503 638.399 339.505C639.003 339.507 639.901 339.51 641.081 339.513C643.44 339.518 646.924 339.521 651.427 339.51C660.434 339.489 673.517 339.416 689.83 339.205C722.455 338.784 768.002 337.817 819.692 335.629C923.035 331.255 1051.07 322 1149.49 302.452L1148.51 297.548C1050.49 317.017 922.777 326.262 819.48 330.633C767.85 332.819 722.353 333.785 689.766 334.206C673.472 334.416 660.406 334.489 651.416 334.51C646.92 334.521 643.444 334.518 641.092 334.513C639.916 334.511 639.021 334.507 638.421 334.505C638.121 334.503 637.894 334.502 637.743 334.501C637.667 334.501 637.61 334.501 637.572 334.5C637.553 334.5 637.539 334.5 637.53 334.5C637.525 334.5 637.522 334.5 637.519 334.5C637.517 334.5 637.516 334.5 637.5 337ZM1149.49 302.452C1249.1 282.666 1372.38 241.609 1470.67 205.537C1519.84 187.495 1562.78 170.688 1593.44 158.392C1608.77 152.243 1621.02 147.222 1629.45 143.737C1633.66 141.995 1636.92 140.637 1639.12 139.714C1640.22 139.252 1641.06 138.9 1641.62 138.662C1641.9 138.543 1642.12 138.453 1642.26 138.393C1642.33 138.363 1642.39 138.34 1642.42 138.325C1642.44 138.317 1642.45 138.311 1642.46 138.308C1642.47 138.306 1642.47 138.304 1642.47 138.303C1642.47 138.302 1642.48 138.302 1641.5 136C1640.52 133.698 1640.52 133.699 1640.52 133.7C1640.52 133.701 1640.52 133.702 1640.51 133.704C1640.5 133.707 1640.49 133.713 1640.47 133.721C1640.44 133.735 1640.38 133.758 1640.31 133.788C1640.17 133.847 1639.96 133.937 1639.68 134.055C1639.12 134.291 1638.29 134.642 1637.19 135.102C1634.99 136.022 1631.74 137.378 1627.54 139.117C1619.13 142.595 1606.89 147.61 1591.58 153.751C1560.96 166.034 1518.06 182.822 1468.95 200.843C1370.7 236.899 1247.73 277.842 1148.51 297.548L1149.49 302.452Z" fill="#FF0000"/>
<path d="M631.5 559.5C631.5 559.5 964.075 513.976 1168 449.5C1366.31 386.799 1643 246 1643 246" stroke="#FFA500" stroke-width="5" stroke-linecap="round"/>
<path d="M638.5 342L638.5 559" stroke="#4169E1" stroke-width="5" stroke-linecap="round"/>
<path d="M828.5 335L828.5 527" stroke="#4169E1" stroke-width="5" stroke-linecap="round"/>
<path d="M990.5 322L990.5 495" stroke="#4169E1" stroke-width="5" stroke-linecap="round"/>
<path d="M568 55L568 151" stroke="#4169E1" stroke-width="5" stroke-linecap="round"/>
<path d="M601 55L601 151" stroke="#4169E1" stroke-width="5" stroke-linecap="round"/>
<path d="M634 55L634 151" stroke="#4169E1" stroke-width="5" stroke-linecap="round"/>
<path d="M667 55L667 151" stroke="#4169E1" stroke-width="5" stroke-linecap="round"/>
<path d="M700 55L700 151" stroke="#4169E1" stroke-width="5" stroke-linecap="round"/>
<path d="M733 55L733 151" stroke="#4169E1" stroke-width="5" stroke-linecap="round"/>
<path d="M766 55L766 151" stroke="#4169E1" stroke-width="5" stroke-linecap="round"/>
<path d="M799 55L799 151" stroke="#4169E1" stroke-width="5" stroke-linecap="round"/>
<path d="M832 55L832 151" stroke="#4169E1" stroke-width="5" stroke-linecap="round"/>
<path d="M1138.5 301L1138.5 458" stroke="#4169E1" stroke-width="5" stroke-linecap="round"/>
<path d="M1267.5 272L1267.5 413" stroke="#4169E1" stroke-width="5" stroke-linecap="round"/>
<path d="M1387.5 232L1387.5 366" stroke="#4169E1" stroke-width="5" stroke-linecap="round"/>
<path d="M1513.5 189L1513.5 306" stroke="#4169E1" stroke-width="5" stroke-linecap="round"/>
<path d="M1644.5 131L1644.5 247" stroke="#4169E1" stroke-width="5" stroke-linecap="round"/>
<g opacity="0.5">
<path d="M595 957L1027 1056" stroke="#A52A2A" stroke-width="20" stroke-linecap="round"/>
<path d="M680 899L1112 998" stroke="#A52A2A" stroke-width="20" stroke-linecap="round"/>
<path d="M777 856L1188.07 931.779" stroke="#A52A2A" stroke-width="20" stroke-linecap="round"/>
<path d="M851 806L1253.22 880.147" stroke="#A52A2A" stroke-width="20" stroke-linecap="round"/>
<path d="M938 761L1319.84 823.964" stroke="#A52A2A" stroke-width="20" stroke-linecap="round"/>
<path d="M1019 712L1390.98 773.337" stroke="#A52A2A" stroke-width="20" stroke-linecap="round"/>
<path d="M1105 668L1449 726" stroke="#A52A2A" stroke-width="20" stroke-linecap="round"/>
<path d="M1194 608L1532.23 665.027" stroke="#A52A2A" stroke-width="20" stroke-linecap="round"/>
<path d="M1289 560L1598.63 612.205" stroke="#A52A2A" stroke-width="20" stroke-linecap="round"/>
<path d="M1369 510L1664.82 559.877" stroke="#A52A2A" stroke-width="20" stroke-linecap="round"/>
<path d="M375 1082L863 1200" stroke="#A52A2A" stroke-width="20" stroke-linecap="round"/>
<path d="M485 1012L973 1130" stroke="#A52A2A" stroke-width="20" stroke-linecap="round"/>
<path d="M1461 484L266 1200" stroke="#838080" stroke-width="30" stroke-linecap="round"/>
<path d="M1652 524L734 1233" stroke="#838080" stroke-width="30" stroke-linecap="round"/>
</g>
<path d="M1296 91L1296 563" stroke="url(#paint2_linear_53_360)" stroke-width="30" stroke-linecap="round"/>
<path d="M136 248L625.2 329.851" stroke="url(#paint3_linear_53_360)" stroke-width="20" stroke-linecap="round"/>
<path d="M118 515L625.2 329.851" stroke="url(#paint4_linear_53_360)" stroke-width="20" stroke-linecap="round"/>
<path d="M118 232L118 1111" stroke="url(#paint5_linear_53_360)" stroke-width="30" stroke-linecap="round"/>
<g filter="url(#filter0_b_53_360)">
<path d="M-264.389 1022.37C-276.372 1016.05 -275.576 998.637 -263.068 993.44L655.691 611.706C659.123 610.28 662.944 610.093 666.499 611.178L921.332 688.923C934.629 692.98 936.782 710.897 924.824 717.989L101.201 1206.43C96.4161 1209.27 90.5007 1209.42 85.5794 1206.83L-264.389 1022.37Z" fill="url(#paint6_linear_53_360)"/>
</g>
<path d="M558.841 727.855C545.124 723.416 544.957 704.068 558.597 699.394L645.604 669.576C648.594 668.552 651.831 668.498 654.854 669.422L696.194 682.066C708.998 685.982 710.645 703.438 698.799 709.68L629.779 746.052C626.202 747.937 622.015 748.298 618.168 747.053L558.841 727.855Z" fill="#9B3232"/>
<path d="M547 542.5L749 583.5" stroke="#008000" stroke-width="10" stroke-linecap="round"/>
<path d="M637 562.5L712.517 644.392C713.314 645.256 713.197 646.617 712.265 647.333L647 697.5" stroke="#008000" stroke-width="10" stroke-linecap="round"/>
</g>
<defs>
<filter id="filter0_b_53_360" x="-288.93" y="594.481" width="1237.6" height="630.19" filterUnits="userSpaceOnUse" color-interpolation-filters="sRGB">
<feFlood flood-opacity="0" result="BackgroundImageFix"/>
<feGaussianBlur in="BackgroundImageFix" stdDeviation="8"/>
<feComposite in2="SourceAlpha" operator="in" result="effect1_backgroundBlur_53_360"/>
<feBlend mode="normal" in="SourceGraphic" in2="effect1_backgroundBlur_53_360" result="shape"/>
</filter>
<linearGradient id="paint0_linear_53_360" x1="1483.3" y1="194.215" x2="1473.41" y2="164.305" gradientUnits="userSpaceOnUse">
<stop offset="0.194445" stop-color="#00FFFF"/>
<stop offset="0.510417" stop-color="#BABABA" stop-opacity="0.1"/>
<stop offset="0.824653" stop-color="#00FFFF"/>
</linearGradient>
<linearGradient id="paint1_linear_53_360" x1="1477.21" y1="121.833" x2="1480.1" y2="90.4659" gradientUnits="userSpaceOnUse">
<stop offset="0.194445" stop-color="#00FFFF"/>
<stop offset="0.510417" stop-color="#BABABA" stop-opacity="0.1"/>
<stop offset="0.824653" stop-color="#00FFFF"/>
</linearGradient>
<linearGradient id="paint2_linear_53_360" x1="1281" y1="326.755" x2="1312.5" y2="326.755" gradientUnits="userSpaceOnUse">
<stop stop-color="#BABABA"/>
<stop offset="0.510417" stop-color="#BABABA" stop-opacity="0.1"/>
<stop offset="0.989583" stop-color="#BABABA"/>
</linearGradient>
<linearGradient id="paint3_linear_53_360" x1="377.871" y1="303.677" x2="383.069" y2="272.609" gradientUnits="userSpaceOnUse">
<stop offset="0.194445" stop-color="#00FFFF"/>
<stop offset="0.510417" stop-color="#BABABA" stop-opacity="0.1"/>
<stop offset="0.824653" stop-color="#00FFFF"/>
</linearGradient>
<linearGradient id="paint4_linear_53_360" x1="376.481" y1="436.612" x2="365.679" y2="407.022" gradientUnits="userSpaceOnUse">
<stop offset="0.194445" stop-color="#00FFFF"/>
<stop offset="0.510417" stop-color="#BABABA" stop-opacity="0.1"/>
<stop offset="0.824653" stop-color="#00FFFF"/>
</linearGradient>
<linearGradient id="paint5_linear_53_360" x1="103" y1="671.044" x2="134.5" y2="671.044" gradientUnits="userSpaceOnUse">
<stop stop-color="#BABABA"/>
<stop offset="0.510417" stop-color="#BABABA" stop-opacity="0.1"/>
<stop offset="0.989583" stop-color="#BABABA"/>
</linearGradient>
<linearGradient id="paint6_linear_53_360" x1="161.5" y1="760.5" x2="315" y2="1038.5" gradientUnits="userSpaceOnUse">
<stop stop-color="#A9EDB3" stop-opacity="0.3"/>
<stop offset="0.609375" stop-color="#ECF4FF" stop-opacity="0.3"/>
<stop offset="1" stop-color="#A9EDB3" stop-opacity="0.3"/>
</linearGradient>
<clipPath id="clip0_53_360">
<rect width="1728" height="1117" fill="white"/>
</clipPath>
</defs>
</svg>
